<?xml version="1.0" encoding="UTF-8" standalone="no"?>
<svg
   xmlns:dc="http://purl.org/dc/elements/1.1/"
   xmlns:cc="http://creativecommons.org/ns#"
   xmlns:rdf="http://www.w3.org/1999/02/22-rdf-syntax-ns#"
   xmlns:svg="http://www.w3.org/2000/svg"
   xmlns="http://www.w3.org/2000/svg"
   xmlns:sodipodi="http://sodipodi.sourceforge.net/DTD/sodipodi-0.dtd"
   xmlns:inkscape="http://www.inkscape.org/namespaces/inkscape"
   width="474"
   height="367.98666"
   viewBox="0 0 125.41248 97.363141"
   version="1.1"
   id="svg8"
   sodipodi:docname="Genshin.svg"
   inkscape:version="1.0.2 (1.0.2+r75+1)">
  <defs
     id="defs2" />
  <sodipodi:namedview
     id="base"
     pagecolor="#ffffff"
     bordercolor="#666666"
     borderopacity="1.0"
     inkscape:pageopacity="0.0"
     inkscape:pageshadow="2"
     inkscape:zoom="1"
     inkscape:cx="211.86104"
     inkscape:cy="135.18504"
     inkscape:document-units="px"
     inkscape:current-layer="layer1"
     inkscape:document-rotation="0"
     showgrid="false"
     inkscape:snap-smooth-nodes="true"
     inkscape:snap-grids="false"
     inkscape:snap-global="true"
     units="px"
     inkscape:snap-text-baseline="true"
     inkscape:window-width="1366"
     inkscape:window-height="716"
     inkscape:window-x="0"
     inkscape:window-y="0"
     inkscape:window-maximized="1"
     fit-margin-top="0"
     fit-margin-left="0"
     fit-margin-right="0"
     fit-margin-bottom="0" />
  <metadata
     id="metadata5">
    <rdf:RDF>
      <cc:Work
         rdf:about="">
        <dc:format>image/svg+xml</dc:format>
        <dc:type
           rdf:resource="http://purl.org/dc/dcmitype/StillImage" />
        <dc:title></dc:title>
      </cc:Work>
    </rdf:RDF>
  </metadata>
  <g
     inkscape:label="レイヤー 1"
     inkscape:groupmode="layer"
     id="layer1">
    <g
       aria-label="Genshin"
       id="text851-3"
       style="font-size:11.6263px;line-height:1.25;font-family:ITCAvantGardeGothicW05-Bold;-inkscape-font-specification:ITCAvantGardeGothicW05-Bold;letter-spacing:5.02708px;stroke-width:0.290656">
      <path
         d="m 20.04592,78.286192 q 0.03974,0.16463 0.09083,0.652844 0.05109,0.482537 0.05109,0.703936 0,0.08515 -0.03974,0.210046 -0.244107,-0.0057 -0.414414,-0.04542 -0.431445,-0.664197 -0.607429,-0.834505 -0.32926,-0.317906 -0.845859,-0.539305 -0.380352,-0.164631 -0.874243,-0.164631 -0.948043,0 -1.66901,0.851536 -0.720967,0.851536 -0.720967,2.531899 0,0.78909 0.278169,1.532764 0.283845,0.743675 0.845858,1.169443 0.562014,0.420091 1.322719,0.420091 0.368999,0 0.783413,-0.09651 0.210045,-0.04542 0.340614,-0.181661 0.09083,-0.09083 0.119215,-0.272491 0.04541,-0.329261 0.04541,-0.936689 0,-0.590398 -0.01703,-0.811798 -0.03974,-0.08515 -0.07948,-0.107861 -0.03406,-0.02838 -0.227076,-0.08515 l -0.505245,-0.136246 q -0.16463,-0.03974 -0.204368,-0.09651 -0.01135,-0.0738 -0.01135,-0.107861 0,-0.07948 0.03974,-0.221399 0.102185,-0.03406 0.141923,-0.03406 0.618783,0 1.072935,0.04542 0.158953,0.01135 0.346291,0.01135 l 0.896951,-0.01135 0.380353,-0.01135 q 0.06812,-0.0057 0.380352,0.01135 0.0057,0.147599 0.0057,0.249784 0,0.06245 -0.03974,0.141922 -0.09651,0.05677 -0.329261,0.141923 -0.232753,0.08515 -0.261137,0.113538 -0.04542,0.04542 -0.06245,0.141923 -0.01703,0.09651 -0.01703,0.675551 0,0.669875 -0.0057,0.800444 -0.02271,0.420091 -0.02271,0.47686 0,0.210045 -0.05677,0.261137 -0.158953,0.158954 -0.987781,0.363322 -0.823151,0.198692 -1.918794,0.198692 -0.766382,0 -1.334072,-0.119215 -0.562014,-0.124892 -0.959397,-0.363322 -0.533629,-0.317907 -0.913981,-0.772059 -0.380353,-0.454152 -0.567691,-0.982105 -0.261137,-0.749351 -0.261137,-1.493025 0,-0.834505 0.386029,-1.691718 0.283845,-0.618782 0.794767,-1.112673 0.516598,-0.499568 1.288657,-0.794767 0.772059,-0.295199 1.680364,-0.295199 0.113538,0 0.368998,0.02839 0.692583,0 1.294334,0.175984 0.601752,0.170307 0.999136,0.408737 z"
         style="font-style:normal;font-variant:normal;font-weight:bold;font-stretch:normal;font-family:Garamond;-inkscape-font-specification:'Garamond Bold';stroke-width:0.290656"
         id="path1065" />
      <path
         d="m 26.690918,82.152164 q 0.1476,-0.482537 0.261138,-0.64149 0.317906,-0.465507 0.675551,-0.726644 0.363322,-0.261138 0.652844,-0.346291 0.374676,-0.107861 0.607429,-0.107861 0.533629,0 0.86289,0.08515 0.32926,0.07948 0.550659,0.232753 0.317907,0.221399 0.510922,0.448476 0.193014,0.227076 0.312229,0.533629 0.124892,0.306552 0.136246,0.743674 L 30.63069,82.36221 q -0.261138,0 -1.146735,-0.05109 -0.32926,-0.02271 -0.454152,-0.02271 -0.03974,0 -0.613106,0.0057 h -0.488214 q -0.01135,0.07948 -0.01135,0.136246 0,0.300876 0.0738,0.635813 0.0738,0.329261 0.2214,0.584721 0.147599,0.249784 0.363321,0.431445 0.2214,0.181661 0.454153,0.261138 l 0.32926,0.107861 q 0.437122,0 0.584721,-0.02839 0.272492,-0.05677 0.47686,-0.141922 0.210046,-0.09083 0.505245,-0.300876 0.204368,0.147599 0.340614,0.266814 -0.499568,0.55066 -1.038873,0.800444 -0.533629,0.244107 -1.197827,0.244107 -0.448476,0 -0.732321,-0.07948 -0.380352,-0.102184 -0.686905,-0.31223 -0.306553,-0.210045 -0.527952,-0.522275 -0.2214,-0.31223 -0.329261,-0.64149 -0.141922,-0.431445 -0.141922,-0.692582 0,-0.493891 0.07948,-0.891274 z M 29.9892,81.908057 q -0.0057,-0.317907 -0.124892,-0.607429 -0.119215,-0.289522 -0.368999,-0.448475 -0.249784,-0.164631 -0.505245,-0.164631 -0.380352,0 -0.686905,0.334938 -0.306553,0.334937 -0.346291,0.908305 l 1.294334,0.0057 q 0.124892,0 0.351968,-0.01703 0.16463,-0.01703 0.232753,-0.01703 0.05109,0 0.153277,0.0057 z"
         style="font-style:normal;font-variant:normal;font-weight:bold;font-stretch:normal;font-family:Garamond;-inkscape-font-specification:'Garamond Bold';stroke-width:0.290656"
         id="path1067" />
      <path
         d="m 36.912365,84.871401 q 0.1476,-0.06812 0.272492,-0.09083 0.312229,-0.05109 0.363322,-0.08515 0.08515,-0.05109 0.113538,-0.124892 0.03406,-0.113538 0.03406,-0.499568 v -0.49389 l 0.0057,-0.40306 -0.01703,-0.596075 v -0.357645 q 0,-0.357645 -0.05677,-0.584722 -0.02271,-0.08515 -0.141922,-0.170307 -0.158954,-0.113538 -0.539306,-0.221399 l -0.0057,-0.272491 q 0.0738,-0.02271 0.130569,-0.02839 0.06244,-0.01135 0.459829,-0.113538 0.31223,-0.113538 0.40306,-0.158953 0.02839,-0.01703 0.09083,-0.05109 0.06812,-0.05677 0.153277,-0.113538 0.170307,-0.119215 0.408737,-0.414414 l 0.300876,-0.02271 -0.01135,0.64149 q -0.0057,0.09651 -0.0057,0.153277 0,0.04542 0.0057,0.261137 0.471183,-0.408737 0.857213,-0.56769 0.505244,-0.210046 0.959396,-0.210046 0.533629,0 0.93669,0.266815 0.40306,0.261137 0.527952,0.607428 0.124892,0.346292 0.124892,1.396519 l -0.02271,1.850671 q 0,0.130568 0.04542,0.215722 0.05677,0.04542 0.31223,0.08515 l 0.278168,0.05109 q 0.05109,0.0738 0.05109,0.181661 0,0.06812 -0.0057,0.187338 l -1.112674,-0.07948 -0.32926,0.01135 h -0.261138 l -0.749351,0.05677 H 40.2958 q -0.0057,-0.0738 -0.0057,-0.113538 0,-0.102185 0.01135,-0.2214 0.07948,-0.01703 0.397383,-0.05677 0.08515,-0.01135 0.187338,-0.03974 0.113538,-0.04542 0.130569,-0.09083 0.04541,-0.09651 0.04541,-0.368999 0,-0.47686 -0.01135,-0.732321 l 0.0057,-0.658521 q 0.0057,-1.197827 -0.147599,-1.493026 -0.215723,-0.425767 -0.647167,-0.425767 -0.317907,0 -0.658521,0.16463 -0.340614,0.158953 -0.703936,0.488214 l -0.01135,0.09651 0.01135,0.357645 -0.0057,0.380353 0.02271,0.908304 -0.01135,0.141923 q 0,0.925335 0.0738,1.04455 0.0738,0.119215 0.562014,0.261138 0.01703,0.09651 0.01703,0.141922 0,0.06812 -0.03974,0.210046 -0.175984,0.0057 -0.295199,0.0057 -0.119215,0 -0.374675,-0.03406 l -0.607429,-0.01135 q -0.454153,0 -1.311365,0.03974 -0.02271,-0.05677 -0.02271,-0.119215 0,-0.04541 0.0057,-0.181661 z"
         style="font-style:normal;font-variant:normal;font-weight:bold;font-stretch:normal;font-family:Garamond;-inkscape-font-specification:'Garamond Bold';stroke-width:0.290656"
         id="path1069" />
      <path
         d="m 48.638192,83.57139 q 0.170307,-0.03406 0.249784,-0.03406 0.03974,0 0.119215,0.0057 l 0.05109,0.05677 q 0.306553,0.539306 0.40306,0.652844 0.198692,0.232753 0.391707,0.374676 0.130568,0.09083 0.408737,0.187338 0.187338,0.06812 0.397383,0.06812 0.357645,0 0.613106,-0.227076 0.25546,-0.232754 0.25546,-0.499568 0,-0.181661 -0.09651,-0.306553 -0.09651,-0.130569 -0.38603,-0.255461 -0.141922,-0.06245 -0.715289,-0.204368 -0.567691,-0.141923 -0.686906,-0.187338 -0.266814,-0.102184 -0.47686,-0.283845 -0.204368,-0.181661 -0.31223,-0.408737 -0.147599,-0.323584 -0.147599,-0.556337 0,-0.431445 0.124892,-0.703936 0.124892,-0.278168 0.351968,-0.488214 0.16463,-0.158953 0.493891,-0.289522 0.334937,-0.130569 0.715289,-0.130569 0.539306,0 0.948043,0.0738 0.408738,0.0738 0.692583,0.221399 0.03406,0.130569 0.09651,0.601752 0.06245,0.471183 0.06245,0.556337 0,0.03974 -0.01703,0.08515 -0.147599,0.04542 -0.244106,0.04542 -0.05677,0 -0.164631,-0.01135 -0.05109,-0.07948 -0.136245,-0.23843 -0.272492,-0.505245 -0.562014,-0.709613 -0.283845,-0.210046 -0.658521,-0.210046 -0.391706,0 -0.658521,0.227076 -0.193014,0.164631 -0.193014,0.448476 0,0.187338 0.204368,0.380353 0.198692,0.198691 0.692582,0.300875 0.743675,0.164631 1.095643,0.329261 0.510921,0.23843 0.71529,0.562013 0.210045,0.323584 0.210045,0.749352 0,0.658521 -0.499567,1.101319 -0.493891,0.437122 -1.447611,0.437122 -0.124892,0 -0.652844,-0.05677 -0.23843,-0.02839 -0.562013,-0.113538 -0.07948,-0.02271 -0.414414,-0.164631 -0.06245,-0.03406 -0.09083,-0.07948 -0.02271,-0.05109 -0.0738,-0.47686 -0.09083,-0.692582 -0.09651,-0.828828 z"
         style="font-style:normal;font-variant:normal;font-weight:bold;font-stretch:normal;font-family:Garamond;-inkscape-font-specification:'Garamond Bold';stroke-width:0.290656"
         id="path1071" />
      <path
         d="m 58.212473,84.803278 q 0.09083,-0.02271 0.505245,-0.06812 0.181661,-0.02271 0.227076,-0.07948 0.05677,-0.08515 0.05677,-0.403061 v -0.40306 l 0.01703,-0.425768 v -0.465506 l 0.0057,-0.113538 -0.0057,-0.283845 0.01135,-0.09651 0.02271,-2.060717 V 80.24472 q 0,-1.055904 -0.05677,-1.305688 -0.03406,-0.1476 -0.16463,-0.232753 -0.124892,-0.08515 -0.596075,-0.158953 v -0.119215 q 0,-0.08515 0.01135,-0.210046 l 0.47686,-0.102184 q 0.141922,-0.03974 0.272491,-0.06812 0.317907,-0.06812 0.800443,-0.283845 0.08515,-0.05109 0.158954,-0.08515 l 0.306553,0.02271 -0.01135,3.394789 q 0.516598,-0.408738 0.942366,-0.579045 0.425768,-0.170307 0.885597,-0.170307 0.437122,0 0.755028,0.158954 0.323584,0.153276 0.499568,0.386029 0.175984,0.227076 0.249784,0.556337 0.05109,0.221399 0.05109,0.851535 v 0.363322 l 0.0057,0.800444 -0.02839,1.158088 q 0.02271,0.05109 0.05109,0.06812 0.06812,0.02838 0.334938,0.07948 0.153276,0.02838 0.23843,0.05109 0.04542,0.08515 0.04542,0.136245 l -0.0057,0.04542 q -0.01135,0.06245 -0.01135,0.187338 l -0.130569,0.0057 q -0.08515,0 -0.334937,-0.02271 -0.47686,-0.04541 -0.800444,-0.04541 -0.210045,0 -0.562013,0.02271 -0.249784,0.01135 -0.635813,0.01135 -0.06245,0 -0.113538,-0.01703 V 85.00768 l -0.01135,-0.0738 q 0,-0.04542 0.02838,-0.124892 0.130569,-0.06245 0.300876,-0.07948 0.175984,-0.02271 0.329261,-0.04542 0.02271,-0.107861 0.02838,-0.136246 l 0.02839,-0.828828 v -1.390841 q 0,-0.618783 -0.06812,-0.834505 -0.06812,-0.221399 -0.283845,-0.357645 -0.215723,-0.141923 -0.522276,-0.141923 -0.357645,0 -0.698259,0.170307 -0.334937,0.164631 -0.573367,0.391707 v 0.993458 q 0,0.817474 -0.01703,1.226211 -0.01135,0.244107 -0.01135,0.306553 0,0.391707 0.05109,0.539306 0.02271,0.06812 0.124891,0.124892 0.210046,0.01703 0.346292,0.02271 0.141922,0 0.227076,0.02271 0.01135,0.141923 0.01135,0.198692 0,0.07948 -0.02271,0.193015 l -0.630136,-0.02839 q -0.357645,-0.02838 -0.641491,-0.02838 l -0.794766,0.03974 -0.556337,-0.0057 q -0.05677,-0.07948 -0.119215,-0.283845 z"
         style="font-style:normal;font-variant:normal;font-weight:bold;font-stretch:normal;font-family:Garamond;-inkscape-font-specification:'Garamond Bold';stroke-width:0.290656"
         id="path1073" />
      <path
         d="m 70.420837,78.388376 q 0,-0.306553 0.198692,-0.499567 0.198691,-0.198692 0.510921,-0.198692 0.334937,0 0.556337,0.210046 0.221399,0.204368 0.221399,0.465506 0,0.193014 -0.09083,0.386029 -0.08515,0.193015 -0.278168,0.31223 -0.187338,0.113538 -0.386029,0.113538 -0.272492,0 -0.505245,-0.232753 -0.227076,-0.232753 -0.227076,-0.556337 z m -0.794767,6.772547 -0.01135,-0.368999 0.641491,-0.08515 q 0.141922,-0.03974 0.193014,-0.113538 0.05677,-0.07948 0.05677,-0.346292 v -0.06245 q 0,-0.06812 0.0057,-0.244106 0.01135,-0.181661 0.01135,-0.317907 0,-0.107861 -0.01703,-0.414414 l 0.0057,-0.283845 -0.0057,-0.266815 0.01135,-0.925335 q 0,-0.175984 -0.03406,-0.363322 -0.06245,-0.08515 -0.227076,-0.1476 -0.164631,-0.06245 -0.573368,-0.09083 v -0.317907 q 0.584721,-0.03406 1.02752,-0.244107 0.300876,-0.136245 0.652844,-0.482536 h 0.380353 q 0.02271,0.703936 0.02271,1.827963 l -0.03974,2.316177 q 0,0.23843 0.02271,0.431444 0.175985,0.06245 0.573368,0.124892 0.153276,0.02271 0.244107,0.05677 l -0.0057,0.31223 q -0.153277,0.0057 -0.227076,0.0057 -0.08515,0 -0.261138,-0.01135 -0.579044,-0.02838 -1.549795,-0.02838 -0.278168,0 -0.539306,0.02271 -0.261137,0.01703 -0.357645,0.01703 z"
         style="font-style:normal;font-variant:normal;font-weight:bold;font-stretch:normal;font-family:Garamond;-inkscape-font-specification:'Garamond Bold';stroke-width:0.290656"
         id="path1075" />
      <path
         d="m 77.97414,84.871401 q 0.1476,-0.06812 0.272492,-0.09083 0.31223,-0.05109 0.363322,-0.08515 0.08515,-0.05109 0.113538,-0.124892 0.03406,-0.113538 0.03406,-0.499568 v -0.49389 l 0.0057,-0.40306 -0.01703,-0.596075 v -0.357645 q 0,-0.357645 -0.05677,-0.584722 -0.02271,-0.08515 -0.141922,-0.170307 -0.158954,-0.113538 -0.539306,-0.221399 l -0.0057,-0.272491 q 0.0738,-0.02271 0.130569,-0.02839 0.06245,-0.01135 0.459829,-0.113538 0.31223,-0.113538 0.40306,-0.158953 0.02839,-0.01703 0.09083,-0.05109 0.06812,-0.05677 0.153276,-0.113538 0.170307,-0.119215 0.408737,-0.414414 l 0.300876,-0.02271 -0.01135,0.64149 q -0.0057,0.09651 -0.0057,0.153277 0,0.04542 0.0057,0.261137 0.471183,-0.408737 0.857213,-0.56769 0.505244,-0.210046 0.959397,-0.210046 0.533629,0 0.936689,0.266815 0.40306,0.261137 0.527952,0.607428 0.124892,0.346292 0.124892,1.396519 l -0.02271,1.850671 q 0,0.130568 0.04542,0.215722 0.05677,0.04542 0.31223,0.08515 l 0.278168,0.05109 q 0.05109,0.0738 0.05109,0.181661 0,0.06812 -0.0057,0.187338 l -1.112673,-0.07948 -0.329261,0.01135 H 82.29992 l -0.749351,0.05677 h -0.193015 q -0.0057,-0.0738 -0.0057,-0.113538 0,-0.102185 0.01135,-0.2214 0.07948,-0.01703 0.397384,-0.05677 0.08515,-0.01135 0.187337,-0.03974 0.113538,-0.04542 0.130569,-0.09083 0.04542,-0.09651 0.04542,-0.368999 0,-0.47686 -0.01135,-0.732321 l 0.0057,-0.658521 q 0.0057,-1.197827 -0.1476,-1.493026 -0.215722,-0.425767 -0.647167,-0.425767 -0.317907,0 -0.658521,0.16463 -0.340614,0.158953 -0.703936,0.488214 l -0.01135,0.09651 0.01135,0.357645 -0.0057,0.380353 0.02271,0.908304 -0.01135,0.141923 q 0,0.925335 0.0738,1.04455 0.0738,0.119215 0.562013,0.261138 0.01703,0.09651 0.01703,0.141922 0,0.06812 -0.03974,0.210046 -0.175984,0.0057 -0.295199,0.0057 -0.119215,0 -0.374675,-0.03406 L 79.3025,85.132554 q -0.454152,0 -1.311365,0.03974 -0.02271,-0.05677 -0.02271,-0.119215 0,-0.04541 0.0057,-0.181661 z"
         style="font-style:normal;font-variant:normal;font-weight:bold;font-stretch:normal;font-family:Garamond;-inkscape-font-specification:'Garamond Bold';stroke-width:0.290656"
         id="path1077" />
    </g>
    <path
       id="rect853"
       style="fill:#000000;stroke:#000000;stroke-width:2.11666;stroke-linecap:round;stroke-linejoin:round;stroke-miterlimit:4;stroke-dasharray:none"
       d="m 34.925007,49.211634 v 22.225009 c 0,0 6.350003,-3.175001 6.350003,-7.408337 V 49.211634 Z"
       sodipodi:nodetypes="ccscc" />
    <rect
       style="fill:#000000;stroke:none;stroke-width:2.11666;stroke-linecap:round;stroke-linejoin:round;stroke-miterlimit:4;stroke-dasharray:none"
       id="rect856"
       width="21.166676"
       height="2.1166658"
       x="27.516678"
       y="48.153294" />
    <path
       style="fill:#000000;fill-opacity:1;stroke:none;stroke-width:2.11666;stroke-linecap:round;stroke-linejoin:round;stroke-miterlimit:4;stroke-dasharray:none;stroke-opacity:1"
       d="m 33.866687,30.161625 4.233321,-4.233335 4.233342,4.233335 -4.233342,4.233336 z"
       id="path858"
       sodipodi:nodetypes="ccccc" />
    <rect
       style="fill:#000000;stroke:none;stroke-width:2.11666;stroke-linecap:round;stroke-linejoin:round;stroke-miterlimit:4;stroke-dasharray:none"
       id="rect860"
       width="46.566685"
       height="2.1166673"
       x="19.049995"
       y="24.869957" />
    <rect
       style="fill:#000000;stroke:none;stroke-width:2.11666;stroke-linecap:round;stroke-linejoin:round;stroke-miterlimit:4;stroke-dasharray:none"
       id="rect862"
       width="21.166676"
       height="2.1166675"
       x="27.516678"
       y="33.336628" />
    <path
       style="fill:#000000;fill-opacity:1;stroke:#000000;stroke-width:2.11666;stroke-linecap:round;stroke-linejoin:round;stroke-miterlimit:4;stroke-dasharray:none;stroke-opacity:1"
       d="m 21.166675,32.278292 c 2.116667,0 7.408329,2.116667 7.408329,2.116667 v 13.75834 c 0,2.116669 -7.408329,4.233336 -7.408329,4.233336 z"
       id="path864"
       sodipodi:nodetypes="ccscc" />
    <path
       style="fill:#000000;fill-opacity:1;stroke:#000000;stroke-width:2.11666;stroke-linecap:round;stroke-linejoin:round;stroke-miterlimit:4;stroke-dasharray:none;stroke-opacity:1"
       d="m 47.625012,34.394959 c 0,0 1.587501,-2.116667 2.645842,-2.116667 1.058345,0 6.085425,2.116669 6.085425,2.645835 0,0.529167 -1.32292,1.587501 -1.32292,2.645836 V 49.7408 c 0,1.058334 -7.408347,1.5875 -7.408347,1.5875 z"
       id="path866"
       sodipodi:nodetypes="csssscc" />
    <path
       id="rect868"
       style="fill:#000000;fill-opacity:1;stroke:#000000;stroke-width:1.05833;stroke-linecap:round;stroke-linejoin:round;stroke-miterlimit:4;stroke-dasharray:none;stroke-opacity:1"
       d="m 29.104184,41.27413 v 1.058333 l 15.345827,2e-6 c 0,0 -0.52916,-1.058335 -1.05832,-1.058335 z"
       sodipodi:nodetypes="ccccc" />
    <path
       id="path875"
       style="fill:#000000;fill-opacity:1;stroke:#000000;stroke-width:1.05833;stroke-linecap:round;stroke-linejoin:round;stroke-miterlimit:4;stroke-dasharray:none;stroke-opacity:1"
       d="m 28.310424,54.503302 c 0,0 -14.552086,3.175001 -14.552086,6.350003 0,3.175001 8.466672,5.820836 13.758346,6.350002 -12.700012,-2.116667 -8.466676,-6.350002 4.233322,-7.408337 0.29124,-0.02428 0.52918,-0.236918 0.52918,-0.529166 0,-0.292248 -0.24564,-0.458284 -0.52918,-0.529166 -2.116661,-0.529169 -2.936102,-2.219433 -3.439582,-4.233336 z"
       sodipodi:nodetypes="cscsssc" />
    <path
       id="path884"
       style="fill:#000000;fill-opacity:1;stroke:#000000;stroke-width:1.05833;stroke-linecap:round;stroke-linejoin:round;stroke-miterlimit:4;stroke-dasharray:none;stroke-opacity:1"
       d="m 47.889613,54.503302 c 0,0 14.552086,3.175001 14.552086,6.350003 0,3.175001 -8.46668,5.820836 -13.758346,6.350002 12.700006,-2.116667 8.466666,-6.350002 -4.233342,-7.408337 -0.29124,-0.02428 -0.52916,-0.236918 -0.52916,-0.529166 0,-0.292248 0.24564,-0.458284 0.52916,-0.529166 2.116681,-0.529169 2.936121,-2.219433 3.439602,-4.233336 z"
       sodipodi:nodetypes="cscsssc" />
    <path
       style="fill:#000000;fill-opacity:1;stroke:#000000;stroke-width:1.05833;stroke-linecap:round;stroke-linejoin:round;stroke-miterlimit:4;stroke-dasharray:none;stroke-opacity:1"
       d="m 80.433369,25.92829 c -4.23334,-0.529167 -7.93751,-3.175002 -8.46667,-9.525005 -0.52918,4.233336 -3.175,8.995838 -8.46668,8.995838 v 1.058335 c 5.29168,0 7.9375,4.7625 8.46668,8.995836 0.52916,-6.350003 4.23333,-8.995836 8.46667,-9.525004 z"
       id="path886"
       sodipodi:nodetypes="cccccc" />
    <path
       id="path890"
       style="fill:#000000;fill-opacity:1;stroke:#000000;stroke-width:1.05833;stroke-linecap:round;stroke-linejoin:round;stroke-miterlimit:4;stroke-dasharray:none;stroke-opacity:1"
       d="m 71.966699,33.865793 v 1.058332 l -12.17084,2e-6 c 0,0 0.52916,-1.058334 1.05834,-1.058334 z"
       sodipodi:nodetypes="ccccc" />
    <path
       id="path892"
       style="fill:#000000;fill-opacity:1;stroke:#000000;stroke-width:2.11666;stroke-linecap:round;stroke-linejoin:round;stroke-miterlimit:4;stroke-dasharray:none;stroke-opacity:1"
       d="m 78.316709,31.219958 c -1.05834,0 -4.23335,3.175003 -4.23335,3.175003 h -2.11666 l 2.11666,3.175 h 8.46667 c 0.29226,0 0.52918,-0.236915 0.52918,-0.529167 0,-1.058332 -3.70418,-5.820834 -4.7625,-5.820836 z"
       sodipodi:nodetypes="ccccssc" />
    <path
       id="rect894"
       style="fill:#000000;fill-opacity:1;stroke:#000000;stroke-width:1.05833;stroke-linecap:round;stroke-linejoin:round;stroke-miterlimit:4;stroke-dasharray:none;stroke-opacity:1"
       d="m 60.854199,54.503302 c 0,12.700005 -12.170846,12.700005 -12.170846,12.700005 0,0 16.933346,0 16.933346,-12.700005 z"
       sodipodi:nodetypes="cccc" />
    <path
       id="path907"
       style="fill:#000000;stroke:#000000;stroke-width:2.11666;stroke-linecap:round;stroke-linejoin:round;stroke-miterlimit:4;stroke-dasharray:none"
       d="m 68.791699,34.394959 v 37.041684 c 0,0 5.29166,-3.175001 5.29166,-7.408337 V 34.394961 Z"
       sodipodi:nodetypes="ccscc" />
    <path
       id="path909"
       style="fill:#000000;stroke:#000000;stroke-width:0.971006;stroke-linecap:round;stroke-linejoin:round;stroke-miterlimit:4;stroke-dasharray:none;stroke-opacity:1"
       d="m 77.214709,49.16797 v 7.452001 c 0,0 4.84982,-1.036505 4.84982,-7.452001 z"
       sodipodi:nodetypes="cccc" />
    <rect
       style="fill:#000000;stroke:none;stroke-width:2.11666;stroke-linecap:round;stroke-linejoin:round;stroke-miterlimit:4;stroke-dasharray:none"
       id="rect913"
       width="25.400011"
       height="2.1166677"
       x="91.016701"
       y="33.336628" />
    <path
       style="fill:#000000;fill-opacity:1;stroke:#000000;stroke-width:2.11666;stroke-linecap:round;stroke-linejoin:round;stroke-miterlimit:4;stroke-dasharray:none;stroke-opacity:1"
       d="m 86.254209,32.278292 c 2.11666,0 7.40832,2.116667 7.40832,2.116667 v 17.991676 c 0,3.175001 -7.40832,6.350003 -7.40832,6.350003 z"
       id="path915"
       sodipodi:nodetypes="ccscc" />
    <path
       style="fill:#000000;fill-opacity:1;stroke:#000000;stroke-width:2.11666;stroke-linecap:round;stroke-linejoin:round;stroke-miterlimit:4;stroke-dasharray:none;stroke-opacity:1"
       d="m 114.82923,34.394961 c 0,-1.058334 1.5875,-2.645835 2.64582,-2.645835 2.11668,0 6.87918,2.645835 6.87918,2.645835 l -2.11668,2.116667 v 22.22501 c 0,0 -7.40832,-2.116667 -7.40832,-7.408338 z"
       id="path917"
       sodipodi:nodetypes="cscccsc" />
    <rect
       style="fill:#000000;stroke:none;stroke-width:2.11666;stroke-linecap:round;stroke-linejoin:round;stroke-miterlimit:4;stroke-dasharray:none"
       id="rect919"
       width="21.166674"
       height="2.1166697"
       x="93.133369"
       y="51.328297" />
    <path
       style="fill:#000000;fill-opacity:1;stroke:#000000;stroke-width:1.05833;stroke-linecap:round;stroke-linejoin:round;stroke-miterlimit:4;stroke-dasharray:none;stroke-opacity:1"
       d="M 16.933339,29.103291 8.46667,30.161625 c 0,-3.175001 -2.645836,-3.704169 -4.762502,-4.233335 5.291668,-0.529167 8.466669,-4.233334 8.995837,-9.525005 1.058333,4.233336 2.645834,8.995838 7.937504,8.995838 v 1.058335 c -2.116669,0 -3.70417,0.529166 -3.70417,2.645833 z"
       id="path871-3"
       sodipodi:nodetypes="ccccccc" />
    <path
       style="fill:#000000;fill-opacity:1;stroke:none;stroke-width:0.529166px;stroke-linecap:butt;stroke-linejoin:miter;stroke-opacity:1"
       d="m 102.65838,34.394961 c 0,4.233334 -3.704161,6.879169 -7.937511,7.408335 l -1.05834,1.587501 1.05834,1.587501 c 4.23335,0.529168 7.937511,3.175001 7.937511,7.408337 h 3.175 c 0,-4.233336 3.70417,-6.879169 7.93751,-7.408337 l 1.05834,-1.587501 -1.05834,-1.587501 c -4.23334,-0.529166 -7.93751,-3.175001 -7.93751,-7.408335 z"
       id="path977"
       sodipodi:nodetypes="ccccccccccc" />
    <path
       style="fill:#000000;fill-opacity:1;stroke:#000000;stroke-width:1.05833;stroke-linecap:round;stroke-linejoin:round;stroke-miterlimit:4;stroke-dasharray:none;stroke-opacity:1"
       d="m 105.30422,34.394961 c 0,-5.29167 3.70417,-7.408337 8.99583,-8.466671 C 109.00839,24.869957 105.4218,21.694956 104.24588,0.52827895 103.06996,21.694956 99.483379,24.869957 94.191709,25.92829 c 5.29167,1.058334 8.995831,3.175001 8.995831,8.466671"
       id="path983"
       sodipodi:nodetypes="ccccc" />
    <path
       style="fill:#000000;fill-opacity:1;stroke:#000000;stroke-width:1.05833;stroke-linecap:round;stroke-linejoin:round;stroke-miterlimit:4;stroke-dasharray:none;stroke-opacity:1"
       d="m 105.30422,53.444967 c 0,5.291671 3.70417,7.408338 8.99583,8.466672 -5.29166,1.058332 -9.56029,5.291668 -10.05417,34.92502 -0.49388,-29.633352 -4.762501,-33.866688 -10.054171,-34.92502 5.29167,-1.058334 8.995831,-3.175001 8.995831,-8.466672"
       id="path985"
       sodipodi:nodetypes="ccccc" />
    <rect
       style="fill:#000000;stroke:none;stroke-width:4.23334;stroke-linecap:square;stroke-opacity:1"
       id="rect876"
       width="5.820837"
       height="17.991674"
       x="60.325005"
       y="37.040798"
       ry="0.52916723" />
    <rect
       style="fill:#000000;stroke:none;stroke-width:0.973526;stroke-linecap:square;stroke-miterlimit:4;stroke-dasharray:none;stroke-opacity:1"
       id="rect878"
       width="5.8208356"
       height="7.9375029"
       x="76.729195"
       y="41.803295"
       ry="0.52916652" />
    <path
       style="fill:#000000;fill-opacity:1;stroke:none;stroke-width:1.05833;stroke-linecap:round;stroke-linejoin:round;stroke-miterlimit:4;stroke-dasharray:none;stroke-opacity:1"
       d="M 17.462507,29.103291 V 46.036632 C 17.462507,56.619971 8.46667,65.08664 0,67.203307 4.233334,62.969973 7.688591,56.616311 7.937503,48.153299 V 30.161625 Z"
       id="path860"
       sodipodi:nodetypes="cscscc" />
  </g>
</svg>
